<?xml version="1.0" encoding="UTF-8"?>
<svg width="800px" height="600px" viewBox="0 0 800 600" version="1.1" xmlns="http://www.w3.org/2000/svg">
    <g stroke="none" stroke-width="1" fill="none" fill-rule="evenodd">
        <rect fill="#F9FAFB" x="0" y="0" width="800" height="600"/>
        <g transform="translate(100, 100)">
            <!-- Document Stack -->
            <g transform="translate(0, 0)">
                <rect x="0" y="0" width="300" height="400" rx="8" fill="#FFFFFF" stroke="#E5E7EB" stroke-width="2"/>
                <rect x="20" y="20" width="260" height="20" rx="4" fill="#F3F4F6"/>
                <rect x="20" y="60" width="260" height="20" rx="4" fill="#F3F4F6"/>
                <rect x="20" y="100" width="260" height="20" rx="4" fill="#F3F4F6"/>
            </g>
            <!-- Processing Arrows -->
            <g transform="translate(320, 180)">
                <path d="M0,20 L100,20" stroke="#3B82F6" stroke-width="4"/>
                <path d="M85,10 L100,20 L85,30" stroke="#3B82F6" stroke-width="4" fill="none"/>
            </g>
            <!-- Digital Output -->
            <g transform="translate(440, 0)">
                <rect x="0" y="0" width="300" height="400" rx="8" fill="#FFFFFF" stroke="#10B981" stroke-width="2"/>
                <rect x="20" y="20" width="260" height="20" rx="4" fill="#D1FAE5"/>
                <rect x="20" y="60" width="260" height="20" rx="4" fill="#D1FAE5"/>
                <rect x="20" y="100" width="260" height="20" rx="4" fill="#D1FAE5"/>
            </g>
        </g>
    </g>
</svg> 