<?xml version="1.0" encoding="UTF-8"?>
<svg width="800px" height="600px" viewBox="0 0 800 600" version="1.1" xmlns="http://www.w3.org/2000/svg">
    <g stroke="none" stroke-width="1" fill="none" fill-rule="evenodd">
        <rect fill="#F9FAFB" x="0" y="0" width="800" height="600"/>
        <g transform="translate(100, 100)">
            <!-- Payment Cards -->
            <g transform="translate(0, 0)">
                <rect x="0" y="0" width="200" height="120" rx="8" fill="#FFFFFF" stroke="#6366F1" stroke-width="2"/>
                <rect x="20" y="20" width="160" height="20" rx="4" fill="#E0E7FF"/>
                <rect x="20" y="60" width="100" height="20" rx="4" fill="#E0E7FF"/>
            </g>
            <g transform="translate(0, 140)">
                <rect x="0" y="0" width="200" height="120" rx="8" fill="#FFFFFF" stroke="#6366F1" stroke-width="2"/>
                <rect x="20" y="20" width="160" height="20" rx="4" fill="#E0E7FF"/>
                <rect x="20" y="60" width="100" height="20" rx="4" fill="#E0E7FF"/>
            </g>
            <!-- Arrows -->
            <g transform="translate(220, 120)">
                <path d="M0,20 L100,20" stroke="#3B82F6" stroke-width="4"/>
                <path d="M85,10 L100,20 L85,30" stroke="#3B82F6" stroke-width="4" fill="none"/>
            </g>
            <!-- Reconciliation Box -->
            <g transform="translate(340, 0)">
                <rect x="0" y="0" width="300" height="260" rx="8" fill="#FFFFFF" stroke="#10B981" stroke-width="2"/>
                <rect x="20" y="20" width="260" height="20" rx="4" fill="#D1FAE5"/>
                <rect x="20" y="60" width="260" height="20" rx="4" fill="#D1FAE5"/>
                <rect x="20" y="100" width="260" height="20" rx="4" fill="#D1FAE5"/>
                <!-- Checkmark -->
                <path d="M20,200 L40,220 L80,180" stroke="#10B981" stroke-width="4" fill="none"/>
            </g>
        </g>
    </g>
</svg> 